<?xml version="1.0" encoding="UTF-8" standalone="no"?>
<!-- Created with Inkscape (http://www.inkscape.org/) -->

<svg
   xmlns:dc="http://purl.org/dc/elements/1.1/"
   xmlns:cc="http://creativecommons.org/ns#"
   xmlns:rdf="http://www.w3.org/1999/02/22-rdf-syntax-ns#"
   xmlns:svg="http://www.w3.org/2000/svg"
   xmlns="http://www.w3.org/2000/svg"
   xmlns:sodipodi="http://sodipodi.sourceforge.net/DTD/sodipodi-0.dtd"
   xmlns:inkscape="http://www.inkscape.org/namespaces/inkscape"
   width="200"
   height="100"
   id="svg2"
   version="1.1"
   inkscape:version="0.48.4 r9939"
   sodipodi:docname="logo2.svg">
  <defs
     id="defs4" />
  <sodipodi:namedview
     id="base"
     pagecolor="#ffffff"
     bordercolor="#666666"
     borderopacity="1.0"
     inkscape:pageopacity="0.0"
     inkscape:pageshadow="2"
     inkscape:zoom="3.6948106"
     inkscape:cx="83.832949"
     inkscape:cy="23.130525"
     inkscape:document-units="px"
     inkscape:current-layer="layer1"
     showgrid="false"
     inkscape:window-width="1395"
     inkscape:window-height="873"
     inkscape:window-x="364"
     inkscape:window-y="178"
     inkscape:window-maximized="0" />
  <metadata
     id="metadata7">
    <rdf:RDF>
      <cc:Work
         rdf:about="">
        <dc:format>image/svg+xml</dc:format>
        <dc:type
           rdf:resource="http://purl.org/dc/dcmitype/StillImage" />
        <dc:title></dc:title>
      </cc:Work>
    </rdf:RDF>
  </metadata>
  <g
     inkscape:label="レイヤー 1"
     inkscape:groupmode="layer"
     id="layer1"
     transform="translate(0,-952.36218)">
    <path
       sodipodi:type="arc"
       style="fill:#ffd42a;stroke-width:2;stroke-miterlimit:4;stroke-dasharray:none"
       id="path3038"
       sodipodi:cx="103.79422"
       sodipodi:cy="73.746964"
       sodipodi:rx="82.954185"
       sodipodi:ry="29.771484"
       d="m 186.74841,73.746964 a 82.954185,29.771484 0 1 1 -165.908376,0 82.954185,29.771484 0 1 1 165.908376,0 z"
       transform="matrix(1.1712144,0,0,1.346603,-21.418659,902.67922)" />
    <g
       transform="scale(0.98500944,1.0152187)"
       style="font-size:51.87762833px;font-style:italic;font-variant:normal;font-weight:normal;font-stretch:normal;line-height:125%;letter-spacing:0px;word-spacing:0px;fill:#d40000;fill-opacity:1;stroke:none;font-family:Lobster Two;-inkscape-font-specification:Lobster Two Italic"
       id="text2985">
      <path
         d="m 38.48877,963.55904 c -0.674409,-0.0519 -1.34882,-0.10376 -2.126983,-0.10376 -8.611678,0 -18.15717,6.43283 -18.15717,13.74757 0,3.4758 2.126986,4.77274 5.550906,4.77274 -0.622531,-0.6744 -1.245063,-1.55633 -1.245063,-3.94269 0,-6.0178 3.890828,-10.11614 9.701117,-11.56872 l -7.781645,36.57372 c 0.415021,-0.052 0.778165,-0.052 1.193186,-0.052 7.470371,0 13.384433,10.0643 18.831579,10.0643 3.42392,0 5.187763,-2.542 5.758417,-6.8997 -1.556328,0.6744 -3.008904,0.83 -4.305844,0.83 -5.914043,0 -10.634918,-4.9284 -15.407655,-6.1215 l 7.989155,-37.30006"
         style=""
         id="path3082" />
      <path
         d="m 56.919107,975.90591 -0.518776,2.49013 c -0.518776,-2.12698 -2.593883,-2.74952 -4.253966,-2.74952 -8.715433,0 -13.280673,11.1537 -13.280673,18.15717 0,6.06968 3.268294,8.35231 6.640337,8.35231 3.320165,0 6.277194,-2.28263 7.885399,-5.08402 0.259388,3.57952 1.867597,5.08402 4.150211,5.08402 2.282613,0 5.654664,-0.9338 9.026707,-9.59737 l -1.919472,0 c -1.50445,3.52768 -3.268293,5.65466 -4.928375,5.65466 -1.29694,0 -1.608207,-1.14131 -1.608207,-2.33449 0,-0.83004 0.103756,-1.71196 0.259389,-2.33449 l 3.787066,-17.6384 -5.23964,0 m -9.234218,22.30738 c -1.971348,0 -3.26829,-1.19319 -3.26829,-5.13588 0,-5.18776 3.164541,-14.57762 8.871074,-14.57762 1.556327,0 2.386371,1.14131 2.593881,2.28262 l -2.490126,11.77622 c -0.674408,3.16453 -3.527681,5.65466 -5.706539,5.65466"
         style=""
         id="path3084" />
      <path
         d="m 64.616451,992.55863 c -0.259388,1.29694 -0.415021,2.59388 -0.415021,3.73519 0,4.56518 2.49013,5.86218 6.12156,5.86218 8.5598,0 14.421981,-9.85677 14.421981,-17.89779 0,-7.31474 -3.683315,-8.45605 -6.951602,-8.45605 -1.919471,0 -3.423925,0.77816 -4.876497,2.02322 l 2.645759,-12.29499 -5.291518,0.72628 -5.654662,26.30196 m 15.355778,-7.72977 c 0,6.69221 -3.579561,13.74758 -8.196665,13.74758 -1.71196,0 -2.593882,-0.9338 -2.593882,-2.69764 0,-0.62253 0.103756,-1.24506 0.259389,-1.97135 l 3.06078,-13.64382 c 1.245061,-1.03755 2.386372,-1.76384 3.735189,-1.76384 2.490123,0 3.735189,2.38638 3.735189,6.32907"
         style=""
         id="path3086" />
    </g>
    <g
       transform="matrix(0.98500944,0,0,1.0152187,-0.54129971,-4.6010478)"
       style="font-size:31.12657738px;font-style:italic;font-variant:normal;font-weight:normal;font-stretch:normal;line-height:125%;letter-spacing:-4.08536386px;word-spacing:0px;fill:#008080;fill-opacity:1;stroke:none;font-family:'EPSON 丸ゴシック体Ｍ';-inkscape-font-specification:'EPSON 丸ゴシック体Ｍ Italic'"
       id="text2989">
      <path
         d="m 105.35457,986.99769 3.03971,0 c 2.04671,0 3.52603,-1.09429 4.43797,-3.28288 1.27665,-3.12076 2.37094,-6.97104 3.28288,-11.55088 0.385,-1.94539 -0.35466,-2.9181 -2.21899,-2.91811 l -7.66005,0 c 0.32421,-1.17534 0.71937,-2.95863 1.18548,-5.34988 0.1621,-0.81057 -0.0405,-1.21586 -0.60794,-1.21589 -0.56743,3e-5 -0.93219,0.40532 -1.09429,1.21589 -0.40531,2.06702 -0.80048,3.85031 -1.18549,5.34988 l -8.146407,0 c -0.729537,10e-6 -1.144963,0.28372 -1.246279,0.85111 -0.121595,0.56743 0.182375,0.85114 0.911912,0.85112 l 8.024824,0 c -1.94543,6.68736 -5.80585,11.59141 -11.581279,14.71217 -0.445828,0.24318 -0.699136,0.52689 -0.759926,0.85112 -0.121592,0.56741 0.101319,0.85112 0.668735,0.85112 0.263436,0 0.607935,-0.12159 1.033499,-0.36477 6.119928,-3.40446 10.233661,-8.75434 12.341201,-16.04964 l 7.53847,0 c 0.89162,2e-5 1.24625,0.44584 1.0639,1.33747 -0.85115,4.29613 -1.90491,7.94377 -3.1613,10.94294 -0.56743,1.378 -1.46921,2.067 -2.70533,2.067 l -2.79653,0 c -0.72955,0 -1.15511,0.28371 -1.27668,0.85112 -0.1216,0.56741 0.18237,0.85111 0.91191,0.85111"
         id="path3075"
         inkscape:connector-curvature="0" />
      <path
         d="m 141.66689,975.32523 c 0.24315,-0.42555 0.4154,-0.87137 0.51675,-1.33747 0.28367,-1.45905 -0.34453,-2.18858 -1.88462,-2.18859 l -17.5087,0 c -0.72954,10e-6 -1.14496,0.28372 -1.24628,0.85112 -0.12159,0.56742 0.18238,0.85113 0.91191,0.85111 l 17.26552,0 c 0.56739,2e-5 0.80043,0.24319 0.69914,0.72953 -0.0811,0.40531 -0.2432,0.8106 -0.48636,1.21588 -2.95866,4.84327 -8.00457,8.40986 -15.13773,10.69977 -0.52689,0.16211 -0.82073,0.40529 -0.88151,0.72952 -0.10133,0.56742 0.0507,0.85112 0.45596,0.85112 0.26343,0 0.5066,-0.0405 0.72952,-0.12159 7.78163,-2.55335 13.30376,-6.64681 16.5664,-12.2804 m -14.4386,-9.24071 13.13152,0 c 0.72951,2e-5 1.15506,-0.28368 1.27668,-0.85111 0.1013,-0.56739 -0.21281,-0.8511 -0.94231,-0.85112 l -13.13152,0 c -0.72955,2e-5 -1.14497,0.28373 -1.24628,0.85112 -0.1216,0.56743 0.18237,0.85113 0.91191,0.85111"
         id="path3077"
         inkscape:connector-curvature="0" />
      <path
         d="m 170.89669,974.71729 -22.49382,0 c -0.72953,10e-6 -1.14496,0.28371 -1.24628,0.85111 -0.12159,0.56743 0.18238,0.85113 0.91191,0.85112 l 22.49382,0 c 0.7295,10e-6 1.15506,-0.28369 1.27668,-0.85112 0.10129,-0.5674 -0.21281,-0.8511 -0.94231,-0.85111"
         id="path3079"
         inkscape:connector-curvature="0" />
    </g>
    <g
       transform="matrix(0.98500944,0,0,1.0152187,-0.27064989,-1.894549)"
       style="font-size:28.53269768px;font-style:italic;font-variant:normal;font-weight:normal;font-stretch:normal;line-height:125%;letter-spacing:-4.08536386px;word-spacing:0px;fill:#008080;fill-opacity:1;stroke:none;font-family:'EPSON 丸ゴシック体Ｍ';-inkscape-font-specification:'EPSON 丸ゴシック体Ｍ Italic'"
       id="text3042">
      <path
         d="m 89.435599,1003.5542 1.588246,-8.02484 c 0.148596,-0.66871 -0.03716,-1.00308 -0.557279,-1.0031 -0.520138,2e-5 -0.854506,0.33439 -1.003103,1.0031 l -3.427267,17.16424 c -0.241495,1.226 0.1486,2.0805 1.170286,2.5634 0.631574,0.2973 2.72137,0.4459 6.269392,0.4459 l 2.67494,0 c 1.746123,0 3.835918,-0.074 6.269396,-0.2229 0.68728,-0.056 1.07738,-0.3158 1.17028,-0.7802 0.0929,-0.5202 -0.12077,-0.7802 -0.64087,-0.7802 -0.24151,0 -0.76164,0.037 -1.56038,0.1114 -1.616132,0.1486 -3.380847,0.2229 -5.294154,0.2229 l -2.117661,0 c -3.380839,0 -5.312738,-0.1857 -5.795704,-0.5572 -0.445832,-0.353 -0.622304,-0.7616 -0.529415,-1.2261 l 1.448926,-7.2446 c 4.755434,-0.8173 9.575895,-2.0805 14.461398,-3.7895 0.48295,-0.1857 0.76159,-0.4458 0.83592,-0.7802 0.0928,-0.5201 -0.12077,-0.78015 -0.64087,-0.78016 -0.29724,1e-5 -0.6409,0.0743 -1.03097,0.22296 -4.328222,1.6347 -8.758588,2.7864 -13.291111,3.4551 m 19.867001,-7.3561 c 0.14858,-0.74302 0.009,-1.37461 -0.41795,-1.89475 -0.40871,-0.52011 -0.98456,-0.78017 -1.72757,-0.78019 -0.74307,2e-5 -1.43038,0.26008 -2.06193,0.78019 -0.61304,0.52014 -0.99384,1.15173 -1.14243,1.89475 -0.14863,0.74305 -0.0186,1.37464 0.3901,1.89475 0.40864,0.52014 0.9845,0.7802 1.72756,0.78019 0.74302,1e-5 1.43033,-0.26005 2.06194,-0.78019 0.63155,-0.52011 1.02165,-1.1517 1.17028,-1.89475 m -0.89164,0 c -0.11149,0.52014 -0.34369,0.92881 -0.6966,1.22601 -0.44585,0.37154 -0.92883,0.5573 -1.44893,0.55728 -0.52015,2e-5 -0.92882,-0.18574 -1.22601,-0.55728 -0.24152,-0.2972 -0.30653,-0.70587 -0.19505,-1.22601 0.0928,-0.52011 0.31577,-0.92878 0.66874,-1.22602 0.44579,-0.3715 0.92877,-0.55726 1.44892,-0.55728 0.5201,2e-5 0.92877,0.18578 1.22602,0.55728 0.24145,0.29724 0.31576,0.70591 0.22291,1.22602"
         id="path3066"
         inkscape:connector-curvature="0" />
      <path
         d="m 120.7932,1005.226 c -0.0743,-1.6904 -0.26008,-3.3622 -0.55728,-5.0155 -0.11148,-0.5201 -0.3251,-0.78017 -0.64087,-0.78018 -0.52015,10e-6 -0.82665,0.26008 -0.91951,0.78018 -0.0372,0.1301 -0.0186,0.3901 0.0557,0.7802 0.2972,1.5232 0.47367,3.2322 0.52942,5.127 0.0371,0.4458 0.22289,0.6687 0.55728,0.6687 0.52011,0 0.82661,-0.2601 0.91951,-0.7802 0.0557,-0.2229 0.0743,-0.483 0.0557,-0.7802 m -5.26629,11.2571 c 6.26008,-2.4521 10.70902,-7.2447 13.34684,-14.3778 0.16715,-0.4459 0.29719,-0.8917 0.39009,-1.3375 0.11143,-0.5944 -0.0929,-0.89165 -0.61301,-0.89166 -0.44584,1e-5 -0.76164,0.29726 -0.94737,0.89166 -2.4149,7.3932 -6.78954,12.1858 -13.12393,14.3778 -0.40868,0.13 -0.65017,0.3901 -0.72446,0.7802 -0.11147,0.5201 0.0929,0.7802 0.61301,0.7802 0.31578,0 0.66872,-0.074 1.05883,-0.2229 m -0.97524,-9.5852 c -0.26008,-1.7462 -0.65017,-3.5295 -1.17029,-5.3499 -0.11146,-0.3715 -0.29722,-0.5573 -0.55728,-0.5573 -0.52013,0 -0.82664,0.2601 -0.91951,0.7802 -0.0372,0.13 -0.009,0.3529 0.0836,0.6687 0.46439,1.6347 0.8452,3.418 1.14243,5.3499 0.0557,0.3715 0.20432,0.5573 0.44582,0.5573 0.52012,0 0.83591,-0.2601 0.94737,-0.7802 0.0557,-0.2415 0.065,-0.4644 0.0279,-0.6687"
         id="path3068"
         inkscape:connector-curvature="0" />
      <path
         d="m 144.04238,1016.1487 2.7864,0 c 1.87615,0 3.23219,-1.0031 4.06813,-3.0093 1.17027,-2.8607 2.17337,-6.3901 3.00931,-10.5883 0.35292,-1.7833 -0.3251,-2.67495 -2.03407,-2.67496 l -7.02171,0 c 0.29719,-1.07739 0.65942,-2.71207 1.08669,-4.90406 0.14859,-0.74302 -0.0372,-1.11454 -0.55728,-1.11456 -0.52014,2e-5 -0.85451,0.37154 -1.0031,1.11456 -0.37154,1.89477 -0.73377,3.52945 -1.0867,4.90406 l -7.46754,0 c -0.66874,1e-5 -1.04955,0.26006 -1.14242,0.78016 -0.11146,0.5202 0.16718,0.7802 0.83592,0.7802 l 7.35608,0 c -1.7833,6.1301 -5.32202,10.6255 -10.61617,13.4862 -0.40867,0.2229 -0.64087,0.483 -0.6966,0.7802 -0.11145,0.5201 0.0929,0.7802 0.61301,0.7802 0.24149,0 0.55728,-0.1115 0.94738,-0.3344 5.60993,-3.1208 9.38085,-8.0248 11.31277,-14.7122 l 6.91026,0 c 0.81732,0 1.1424,0.4087 0.97524,1.226 -0.78022,3.9382 -1.74617,7.2818 -2.89786,10.0311 -0.52014,1.2631 -1.34677,1.8947 -2.47989,1.8947 l -2.56348,0 c -0.66875,0 -1.05885,0.2601 -1.17029,0.7802 -0.11147,0.5201 0.16717,0.7802 0.83592,0.7802"
         id="path3070"
         inkscape:connector-curvature="0" />
      <path
         d="m 178.99443,1004.8917 -20.61933,0 c -0.66874,0 -1.04955,0.26 -1.14243,0.7801 -0.11146,0.5202 0.16718,0.7802 0.83592,0.7802 l 20.61933,0 c 0.66871,0 1.05881,-0.26 1.17029,-0.7802 0.0928,-0.5201 -0.19507,-0.7801 -0.86378,-0.7801"
         id="path3072"
         inkscape:connector-curvature="0" />
    </g>
  </g>
</svg>
